<svg width="105" height="30" viewBox="0 0 105 30" fill="none" xmlns="http://www.w3.org/2000/svg">
<path d="M13.4766 4.60938C13.3594 4.63542 13.1706 4.71354 12.9102 4.84375C12.6497 4.96094 12.3503 5.11719 12.0117 5.3125C11.6862 5.50781 11.3477 5.74219 10.9961 6.01562C10.6576 6.27604 10.3385 6.56901 10.0391 6.89453C9.7526 7.20703 9.51823 7.54557 9.33594 7.91016C9.15365 8.27474 9.0625 8.64583 9.0625 9.02344C9.0625 9.3099 9.12109 9.57682 9.23828 9.82422C9.36849 10.0586 9.5638 10.2669 9.82422 10.4492C10.0977 10.6185 10.4427 10.7552 10.8594 10.8594C11.276 10.9635 11.7839 11.0156 12.3828 11.0156C12.6823 11.0156 12.9818 11.0091 13.2812 10.9961C13.5807 10.9701 13.8802 10.9245 14.1797 10.8594V10.3516C14.1797 9.45312 14.3164 8.59375 14.5898 7.77344C14.8763 6.95312 15.2539 6.19141 15.7227 5.48828C16.1914 4.78516 16.7383 4.15365 17.3633 3.59375C18.0013 3.02083 18.6654 2.53906 19.3555 2.14844C20.0456 1.74479 20.7487 1.4388 21.4648 1.23047C22.194 1.00911 22.8906 0.898438 23.5547 0.898438C23.9974 0.898438 24.3685 0.970052 24.668 1.11328C24.9674 1.24349 25.2083 1.41927 25.3906 1.64062C25.5729 1.84896 25.7031 2.08984 25.7812 2.36328C25.8594 2.6237 25.8984 2.8776 25.8984 3.125C25.8984 3.46354 25.8398 3.86719 25.7227 4.33594C25.6185 4.80469 25.3385 5.34505 24.8828 5.95703C24.4271 6.55599 23.737 7.22656 22.8125 7.96875C21.888 8.71094 20.612 9.51823 18.9844 10.3906C18.5156 10.651 18.0664 10.8724 17.6367 11.0547C17.207 11.224 16.7969 11.3672 16.4062 11.4844C16.4974 11.9141 16.6341 12.2982 16.8164 12.6367C16.9987 12.9753 17.181 13.2617 17.3633 13.4961C17.5846 13.7695 17.8125 14.0104 18.0469 14.2188L17.5781 14.6875C17.3177 14.5052 16.9922 14.349 16.6016 14.2188C16.224 14.0885 15.7422 14.0234 15.1562 14.0234L14.6094 14.0625C13.9323 14.1276 13.1706 14.3294 12.3242 14.668C11.4779 14.9935 10.612 15.4232 9.72656 15.957C8.85417 16.4909 8.0013 17.1029 7.16797 17.793C6.33464 18.4831 5.59245 19.2188 4.94141 20C4.29036 20.7682 3.76302 21.5625 3.35938 22.3828C2.96875 23.1901 2.77344 23.9844 2.77344 24.7656C2.77344 25.1953 2.80599 25.6315 2.87109 26.0742C2.94922 26.5039 3.11198 26.8945 3.35938 27.2461C3.61979 27.5977 3.9974 27.8841 4.49219 28.1055C5 28.3268 5.67708 28.4375 6.52344 28.4375C7.30469 28.4375 8.08594 28.3073 8.86719 28.0469C9.64844 27.7865 10.3906 27.4414 11.0938 27.0117C11.7969 26.569 12.4479 26.0677 13.0469 25.5078C13.6458 24.9349 14.1667 24.3424 14.6094 23.7305C15.0521 23.1185 15.3971 22.5065 15.6445 21.8945C15.8919 21.2695 16.0156 20.6901 16.0156 20.1562C16.0156 19.7396 15.944 19.388 15.8008 19.1016C15.6576 18.8021 15.4688 18.5677 15.2344 18.3984C15 18.2161 14.7266 18.0859 14.4141 18.0078C14.1146 17.9297 13.8021 17.8906 13.4766 17.8906C12.7734 17.8906 12.0247 18.0469 11.2305 18.3594C10.4492 18.6719 9.68099 19.1081 8.92578 19.668C8.18359 20.2148 7.48047 20.8789 6.81641 21.6602C6.15234 22.4284 5.59896 23.2682 5.15625 24.1797L5 24.0234C5.15625 23.5677 5.39062 23.0534 5.70312 22.4805C6.01562 21.9076 6.38021 21.3281 6.79688 20.7422C7.21354 20.1562 7.67578 19.5898 8.18359 19.043C8.70443 18.4831 9.2513 17.9883 9.82422 17.5586C10.3971 17.1289 10.9896 16.7839 11.6016 16.5234C12.2266 16.263 12.8516 16.1328 13.4766 16.1328C13.9323 16.1328 14.3555 16.237 14.7461 16.4453C15.1367 16.6536 15.4688 16.9336 15.7422 17.2852C16.0286 17.6237 16.25 18.0143 16.4062 18.457C16.5625 18.8997 16.6406 19.349 16.6406 19.8047C16.6406 20.625 16.4714 21.4453 16.1328 22.2656C15.8073 23.0729 15.3646 23.8477 14.8047 24.5898C14.2448 25.332 13.5872 26.0286 12.832 26.6797C12.0898 27.3177 11.3021 27.8711 10.4688 28.3398C9.63542 28.8086 8.78255 29.1797 7.91016 29.4531C7.05078 29.7135 6.22396 29.8438 5.42969 29.8438C4.79167 29.8438 4.16667 29.7396 3.55469 29.5312C2.94271 29.3099 2.38932 28.9844 1.89453 28.5547C1.41276 28.112 1.02214 27.5651 0.722656 26.9141C0.423177 26.263 0.273438 25.4948 0.273438 24.6094C0.273438 23.5417 0.449219 22.513 0.800781 21.5234C1.16536 20.5208 1.66016 19.5898 2.28516 18.7305C2.91016 17.8581 3.64583 17.0703 4.49219 16.3672C5.35156 15.651 6.26953 15.0391 7.24609 14.5312C8.23568 14.0234 9.25781 13.6328 10.3125 13.3594C11.3802 13.0729 12.4479 12.9297 13.5156 12.9297C13.5677 12.9297 13.6198 12.9297 13.6719 12.9297C13.724 12.9297 13.7956 12.9297 13.8867 12.9297C13.9909 12.9297 14.1276 12.9362 14.2969 12.9492C14.4661 12.9492 14.6875 12.9557 14.9609 12.9688C14.8828 12.8255 14.7982 12.6693 14.707 12.5C14.6159 12.3307 14.5312 12.1484 14.4531 11.9531C13.9583 12.0312 13.4961 12.0768 13.0664 12.0898C12.6367 12.1029 12.2266 12.1094 11.8359 12.1094C11.1328 12.1094 10.4688 12.0638 9.84375 11.9727C9.23177 11.8815 8.69141 11.7318 8.22266 11.5234C7.75391 11.3151 7.38281 11.0482 7.10938 10.7227C6.84896 10.3841 6.71875 9.97396 6.71875 9.49219C6.71875 9.01042 6.85547 8.5612 7.12891 8.14453C7.40234 7.71484 7.7474 7.32422 8.16406 6.97266C8.59375 6.62109 9.0625 6.30208 9.57031 6.01562C10.0911 5.71615 10.5924 5.46224 11.0742 5.25391C11.556 5.04557 11.9857 4.8763 12.3633 4.74609C12.7539 4.60286 13.0339 4.50521 13.2031 4.45312C13.2031 4.45312 13.2422 4.4401 13.3203 4.41406H13.3594L13.4766 4.60938ZM18.5938 5.58594C18.3073 5.91146 18.0339 6.25651 17.7734 6.62109C17.513 6.98568 17.2786 7.36979 17.0703 7.77344C16.862 8.17708 16.6862 8.60026 16.543 9.04297C16.4128 9.47266 16.3411 9.92188 16.3281 10.3906C17.4349 10.0391 18.4831 9.58333 19.4727 9.02344C20.4622 8.46354 21.3281 7.86458 22.0703 7.22656C22.8255 6.57552 23.4245 5.91797 23.8672 5.25391C24.3099 4.58984 24.5312 3.97135 24.5312 3.39844C24.5312 3.08594 24.4271 2.85156 24.2188 2.69531C24.0104 2.53906 23.75 2.46094 23.4375 2.46094C23.138 2.46094 22.7865 2.54557 22.3828 2.71484C21.9922 2.87109 21.5755 3.09245 21.1328 3.37891C20.7031 3.66536 20.2669 3.9974 19.8242 4.375C19.3815 4.7526 18.9714 5.15625 18.5938 5.58594ZM78.0469 3.32031C76.7448 3.55469 75.4557 3.72396 74.1797 3.82812C72.9036 3.93229 71.6146 3.98438 70.3125 3.98438H69.2578C68.5026 4.59635 67.793 5.22786 67.1289 5.87891C66.4779 6.51693 65.8594 7.14844 65.2734 7.77344C64.6875 8.39844 64.1341 9.00391 63.6133 9.58984C63.1055 10.1758 62.6172 10.7292 62.1484 11.25C61.849 11.5625 61.5234 11.9206 61.1719 12.3242C60.8333 12.7279 60.4557 13.1641 60.0391 13.6328L62.9297 13.8281L62.2656 14.9219H58.9453C58.3333 15.612 57.7018 16.3346 57.0508 17.0898C56.3997 17.832 55.7422 18.5742 55.0781 19.3164C54.4141 20.0586 53.7565 20.7812 53.1055 21.4844C52.4674 22.1875 51.862 22.8385 51.2891 23.4375C50.3776 24.388 49.4466 25.2604 48.4961 26.0547C47.5456 26.849 46.556 27.5391 45.5273 28.125C44.4987 28.6979 43.431 29.1471 42.3242 29.4727C41.2174 29.7982 40.0521 29.9609 38.8281 29.9609C37.4089 29.9609 36.3086 29.6875 35.5273 29.1406C34.7591 28.5938 34.375 27.8776 34.375 26.9922C34.375 26.6667 34.4271 26.3346 34.5312 25.9961C34.6354 25.6445 34.7917 25.332 35 25.0586C35.2214 24.7721 35.4883 24.5443 35.8008 24.375C36.1263 24.1927 36.4974 24.1016 36.9141 24.1016C37.3828 24.1016 37.7474 24.2253 38.0078 24.4727C38.2682 24.7201 38.3984 25.0781 38.3984 25.5469C38.3984 25.9766 38.2943 26.3281 38.0859 26.6016C37.8906 26.862 37.6758 27.0833 37.4414 27.2656C37.207 27.4479 36.9857 27.6172 36.7773 27.7734C36.582 27.9167 36.4844 28.0859 36.4844 28.2812C36.4844 28.5547 36.6406 28.763 36.9531 28.9062C37.2656 29.0365 37.6953 29.1016 38.2422 29.1016C39.2839 29.1016 40.2539 28.9453 41.1523 28.6328C42.0508 28.3203 42.9102 27.8841 43.7305 27.3242C44.5508 26.7643 45.3516 26.0938 46.1328 25.3125C46.9271 24.5312 47.7344 23.6719 48.5547 22.7344C49.5703 21.5495 50.6641 20.306 51.8359 19.0039C53.0208 17.7018 54.2448 16.3411 55.5078 14.9219H52.3828L53.6328 13.1641L56.8359 13.3984C57.1354 13.0729 57.4349 12.7409 57.7344 12.4023C58.0469 12.0508 58.3659 11.6927 58.6914 11.3281C59.0299 10.9505 59.3815 10.5599 59.7461 10.1562C60.1237 9.7526 60.5339 9.32292 60.9766 8.86719C61.862 7.94271 62.7865 7.05078 63.75 6.19141C64.7135 5.33203 65.7161 4.53125 66.7578 3.78906C66.3151 3.73698 65.8724 3.67839 65.4297 3.61328C64.987 3.54818 64.4922 3.48958 63.9453 3.4375C63.3984 3.3724 62.7734 3.32682 62.0703 3.30078C61.3672 3.26172 60.5339 3.24219 59.5703 3.24219C57.9167 3.24219 56.3867 3.43099 54.9805 3.80859C53.5742 4.1862 52.3568 4.66146 51.3281 5.23438C50.2995 5.80729 49.4922 6.43229 48.9062 7.10938C48.3333 7.78646 48.0469 8.42448 48.0469 9.02344C48.0469 9.27083 48.0924 9.50521 48.1836 9.72656C48.2747 9.9349 48.431 10.1237 48.6523 10.293C48.8867 10.4492 49.1862 10.5794 49.5508 10.6836C49.9284 10.7747 50.4036 10.8203 50.9766 10.8203C51.4323 10.8203 51.8815 10.7552 52.3242 10.625C52.7799 10.4818 53.2161 10.2995 53.6328 10.0781C54.0625 9.84375 54.4727 9.58333 54.8633 9.29688C55.2539 8.9974 55.6185 8.69141 55.957 8.37891C56.7513 7.66276 57.5 6.84896 58.2031 5.9375L58.4766 6.44531C57.9688 7.65625 57.3958 8.63932 56.7578 9.39453C56.1328 10.1497 55.4883 10.7357 54.8242 11.1523C54.1602 11.569 53.4896 11.8555 52.8125 12.0117C52.1484 12.1549 51.5234 12.2266 50.9375 12.2266C50.4818 12.2266 50.0195 12.181 49.5508 12.0898C49.0951 11.9857 48.6784 11.8099 48.3008 11.5625C47.9362 11.3151 47.6367 10.9831 47.4023 10.5664C47.181 10.1497 47.0703 9.6224 47.0703 8.98438C47.0703 8.35938 47.2656 7.74089 47.6562 7.12891C48.0599 6.50391 48.5938 5.90495 49.2578 5.33203C49.9349 4.75911 50.7161 4.22526 51.6016 3.73047C52.487 3.23568 53.418 2.80599 54.3945 2.44141C55.3841 2.0638 56.3867 1.77083 57.4023 1.5625C58.431 1.35417 59.4141 1.25 60.3516 1.25C60.8724 1.25 61.4388 1.28906 62.0508 1.36719C62.6628 1.43229 63.3268 1.52344 64.043 1.64062C64.7591 1.74479 65.5339 1.86198 66.3672 1.99219C67.2005 2.1224 68.099 2.23958 69.0625 2.34375C69.6875 1.99219 70.319 1.67969 70.957 1.40625C71.6081 1.11979 72.2656 0.885417 72.9297 0.703125L73.2422 1.21094C72.8646 1.43229 72.5065 1.65365 72.168 1.875C71.8424 2.08333 71.5104 2.30469 71.1719 2.53906C71.8359 2.57812 72.5326 2.61719 73.2617 2.65625C74.0039 2.68229 74.7786 2.69531 75.5859 2.69531C76.0938 2.69531 76.5951 2.6888 77.0898 2.67578C77.5977 2.66276 78.0859 2.64323 78.5547 2.61719L78.0469 3.32031ZM92.3828 4.60938C92.2656 4.63542 92.0768 4.71354 91.8164 4.84375C91.556 4.96094 91.2565 5.11719 90.918 5.3125C90.5924 5.50781 90.2539 5.74219 89.9023 6.01562C89.5638 6.27604 89.2448 6.56901 88.9453 6.89453C88.6589 7.20703 88.4245 7.54557 88.2422 7.91016C88.0599 8.27474 87.9688 8.64583 87.9688 9.02344C87.9688 9.3099 88.0273 9.57682 88.1445 9.82422C88.2747 10.0586 88.4701 10.2669 88.7305 10.4492C89.0039 10.6185 89.349 10.7552 89.7656 10.8594C90.1823 10.9635 90.6901 11.0156 91.2891 11.0156C91.5885 11.0156 91.888 11.0091 92.1875 10.9961C92.487 10.9701 92.7865 10.9245 93.0859 10.8594V10.3516C93.0859 9.45312 93.2227 8.59375 93.4961 7.77344C93.7826 6.95312 94.1602 6.19141 94.6289 5.48828C95.0977 4.78516 95.6445 4.15365 96.2695 3.59375C96.9076 3.02083 97.5716 2.53906 98.2617 2.14844C98.9518 1.74479 99.6549 1.4388 100.371 1.23047C101.1 1.00911 101.797 0.898438 102.461 0.898438C102.904 0.898438 103.275 0.970052 103.574 1.11328C103.874 1.24349 104.115 1.41927 104.297 1.64062C104.479 1.84896 104.609 2.08984 104.688 2.36328C104.766 2.6237 104.805 2.8776 104.805 3.125C104.805 3.46354 104.746 3.86719 104.629 4.33594C104.525 4.80469 104.245 5.34505 103.789 5.95703C103.333 6.55599 102.643 7.22656 101.719 7.96875C100.794 8.71094 99.5182 9.51823 97.8906 10.3906C97.4219 10.651 96.9727 10.8724 96.543 11.0547C96.1133 11.224 95.7031 11.3672 95.3125 11.4844C95.4036 11.9141 95.5404 12.2982 95.7227 12.6367C95.9049 12.9753 96.0872 13.2617 96.2695 13.4961C96.4909 13.7695 96.7188 14.0104 96.9531 14.2188L96.4844 14.6875C96.224 14.5052 95.8984 14.349 95.5078 14.2188C95.1302 14.0885 94.6484 14.0234 94.0625 14.0234L93.5156 14.0625C92.8385 14.1276 92.0768 14.3294 91.2305 14.668C90.3841 14.9935 89.5182 15.4232 88.6328 15.957C87.7604 16.4909 86.9076 17.1029 86.0742 17.793C85.2409 18.4831 84.4987 19.2188 83.8477 20C83.1966 20.7682 82.6693 21.5625 82.2656 22.3828C81.875 23.1901 81.6797 23.9844 81.6797 24.7656C81.6797 25.1953 81.7122 25.6315 81.7773 26.0742C81.8555 26.5039 82.0182 26.8945 82.2656 27.2461C82.526 27.5977 82.9036 27.8841 83.3984 28.1055C83.9062 28.3268 84.5833 28.4375 85.4297 28.4375C86.2109 28.4375 86.9922 28.3073 87.7734 28.0469C88.5547 27.7865 89.2969 27.4414 90 27.0117C90.7031 26.569 91.3542 26.0677 91.9531 25.5078C92.5521 24.9349 93.0729 24.3424 93.5156 23.7305C93.9583 23.1185 94.3034 22.5065 94.5508 21.8945C94.7982 21.2695 94.9219 20.6901 94.9219 20.1562C94.9219 19.7396 94.8503 19.388 94.707 19.1016C94.5638 18.8021 94.375 18.5677 94.1406 18.3984C93.9062 18.2161 93.6328 18.0859 93.3203 18.0078C93.0208 17.9297 92.7083 17.8906 92.3828 17.8906C91.6797 17.8906 90.931 18.0469 90.1367 18.3594C89.3555 18.6719 88.5872 19.1081 87.832 19.668C87.0898 20.2148 86.3867 20.8789 85.7227 21.6602C85.0586 22.4284 84.5052 23.2682 84.0625 24.1797L83.9062 24.0234C84.0625 23.5677 84.2969 23.0534 84.6094 22.4805C84.9219 21.9076 85.2865 21.3281 85.7031 20.7422C86.1198 20.1562 86.582 19.5898 87.0898 19.043C87.6107 18.4831 88.1576 17.9883 88.7305 17.5586C89.3034 17.1289 89.8958 16.7839 90.5078 16.5234C91.1328 16.263 91.7578 16.1328 92.3828 16.1328C92.8385 16.1328 93.2617 16.237 93.6523 16.4453C94.043 16.6536 94.375 16.9336 94.6484 17.2852C94.9349 17.6237 95.1562 18.0143 95.3125 18.457C95.4688 18.8997 95.5469 19.349 95.5469 19.8047C95.5469 20.625 95.3776 21.4453 95.0391 22.2656C94.7135 23.0729 94.2708 23.8477 93.7109 24.5898C93.151 25.332 92.4935 26.0286 91.7383 26.6797C90.9961 27.3177 90.2083 27.8711 89.375 28.3398C88.5417 28.8086 87.6888 29.1797 86.8164 29.4531C85.957 29.7135 85.1302 29.8438 84.3359 29.8438C83.6979 29.8438 83.0729 29.7396 82.4609 29.5312C81.849 29.3099 81.2956 28.9844 80.8008 28.5547C80.319 28.112 79.9284 27.5651 79.6289 26.9141C79.3294 26.263 79.1797 25.4948 79.1797 24.6094C79.1797 23.5417 79.3555 22.513 79.707 21.5234C80.0716 20.5208 80.5664 19.5898 81.1914 18.7305C81.8164 17.8581 82.5521 17.0703 83.3984 16.3672C84.2578 15.651 85.1758 15.0391 86.1523 14.5312C87.1419 14.0234 88.1641 13.6328 89.2188 13.3594C90.2865 13.0729 91.3542 12.9297 92.4219 12.9297C92.474 12.9297 92.526 12.9297 92.5781 12.9297C92.6302 12.9297 92.7018 12.9297 92.793 12.9297C92.8971 12.9297 93.0339 12.9362 93.2031 12.9492C93.3724 12.9492 93.5938 12.9557 93.8672 12.9688C93.7891 12.8255 93.7044 12.6693 93.6133 12.5C93.5221 12.3307 93.4375 12.1484 93.3594 11.9531C92.8646 12.0312 92.4023 12.0768 91.9727 12.0898C91.543 12.1029 91.1328 12.1094 90.7422 12.1094C90.0391 12.1094 89.375 12.0638 88.75 11.9727C88.138 11.8815 87.5977 11.7318 87.1289 11.5234C86.6602 11.3151 86.2891 11.0482 86.0156 10.7227C85.7552 10.3841 85.625 9.97396 85.625 9.49219C85.625 9.01042 85.7617 8.5612 86.0352 8.14453C86.3086 7.71484 86.6536 7.32422 87.0703 6.97266C87.5 6.62109 87.9688 6.30208 88.4766 6.01562C88.9974 5.71615 89.4987 5.46224 89.9805 5.25391C90.4622 5.04557 90.8919 4.8763 91.2695 4.74609C91.6602 4.60286 91.9401 4.50521 92.1094 4.45312C92.1094 4.45312 92.1484 4.4401 92.2266 4.41406H92.2656L92.3828 4.60938ZM97.5 5.58594C97.2135 5.91146 96.9401 6.25651 96.6797 6.62109C96.4193 6.98568 96.1849 7.36979 95.9766 7.77344C95.7682 8.17708 95.5924 8.60026 95.4492 9.04297C95.319 9.47266 95.2474 9.92188 95.2344 10.3906C96.3411 10.0391 97.3893 9.58333 98.3789 9.02344C99.3685 8.46354 100.234 7.86458 100.977 7.22656C101.732 6.57552 102.331 5.91797 102.773 5.25391C103.216 4.58984 103.438 3.97135 103.438 3.39844C103.438 3.08594 103.333 2.85156 103.125 2.69531C102.917 2.53906 102.656 2.46094 102.344 2.46094C102.044 2.46094 101.693 2.54557 101.289 2.71484C100.898 2.87109 100.482 3.09245 100.039 3.37891C99.6094 3.66536 99.1732 3.9974 98.7305 4.375C98.2878 4.7526 97.8776 5.15625 97.5 5.58594Z" fill="black" fill-opacity="0.7"/>
</svg>
