<svg width="168" height="47" viewBox="0 0 168 47" fill="none" xmlns="http://www.w3.org/2000/svg">
<path d="M21.5625 6.375C21.375 6.41667 21.0729 6.54167 20.6562 6.75C20.2396 6.9375 19.7604 7.1875 19.2188 7.5C18.6979 7.8125 18.1562 8.1875 17.5938 8.625C17.0521 9.04167 16.5417 9.51042 16.0625 10.0312C15.6042 10.5312 15.2292 11.0729 14.9375 11.6562C14.6458 12.2396 14.5 12.8333 14.5 13.4375C14.5 13.8958 14.5938 14.3229 14.7812 14.7188C14.9896 15.0938 15.3021 15.4271 15.7188 15.7188C16.1562 15.9896 16.7083 16.2083 17.375 16.375C18.0417 16.5417 18.8542 16.625 19.8125 16.625C20.2917 16.625 20.7708 16.6146 21.25 16.5938C21.7292 16.5521 22.2083 16.4792 22.6875 16.375V15.5625C22.6875 14.125 22.9062 12.75 23.3438 11.4375C23.8021 10.125 24.4062 8.90625 25.1562 7.78125C25.9062 6.65625 26.7812 5.64583 27.7812 4.75C28.8021 3.83333 29.8646 3.0625 30.9688 2.4375C32.0729 1.79167 33.1979 1.30208 34.3438 0.96875C35.5104 0.614583 36.625 0.4375 37.6875 0.4375C38.3958 0.4375 38.9896 0.552083 39.4688 0.78125C39.9479 0.989583 40.3333 1.27083 40.625 1.625C40.9167 1.95833 41.125 2.34375 41.25 2.78125C41.375 3.19792 41.4375 3.60417 41.4375 4C41.4375 4.54167 41.3438 5.1875 41.1562 5.9375C40.9896 6.6875 40.5417 7.55208 39.8125 8.53125C39.0833 9.48958 37.9792 10.5625 36.5 11.75C35.0208 12.9375 32.9792 14.2292 30.375 15.625C29.625 16.0417 28.9062 16.3958 28.2188 16.6875C27.5312 16.9583 26.875 17.1875 26.25 17.375C26.3958 18.0625 26.6146 18.6771 26.9062 19.2188C27.1979 19.7604 27.4896 20.2188 27.7812 20.5938C28.1354 21.0312 28.5 21.4167 28.875 21.75L28.125 22.5C27.7083 22.2083 27.1875 21.9583 26.5625 21.75C25.9583 21.5417 25.1875 21.4375 24.25 21.4375L23.375 21.5C22.2917 21.6042 21.0729 21.9271 19.7188 22.4688C18.3646 22.9896 16.9792 23.6771 15.5625 24.5312C14.1667 25.3854 12.8021 26.3646 11.4688 27.4688C10.1354 28.5729 8.94792 29.75 7.90625 31C6.86458 32.2292 6.02083 33.5 5.375 34.8125C4.75 36.1042 4.4375 37.375 4.4375 38.625C4.4375 39.3125 4.48958 40.0104 4.59375 40.7188C4.71875 41.4062 4.97917 42.0312 5.375 42.5938C5.79167 43.1562 6.39583 43.6146 7.1875 43.9688C8 44.3229 9.08333 44.5 10.4375 44.5C11.6875 44.5 12.9375 44.2917 14.1875 43.875C15.4375 43.4583 16.625 42.9062 17.75 42.2188C18.875 41.5104 19.9167 40.7083 20.875 39.8125C21.8333 38.8958 22.6667 37.9479 23.375 36.9688C24.0833 35.9896 24.6354 35.0104 25.0312 34.0312C25.4271 33.0312 25.625 32.1042 25.625 31.25C25.625 30.5833 25.5104 30.0208 25.2812 29.5625C25.0521 29.0833 24.75 28.7083 24.375 28.4375C24 28.1458 23.5625 27.9375 23.0625 27.8125C22.5833 27.6875 22.0833 27.625 21.5625 27.625C20.4375 27.625 19.2396 27.875 17.9688 28.375C16.7188 28.875 15.4896 29.5729 14.2812 30.4688C13.0938 31.3438 11.9688 32.4062 10.9062 33.6562C9.84375 34.8854 8.95833 36.2292 8.25 37.6875L8 37.4375C8.25 36.7083 8.625 35.8854 9.125 34.9688C9.625 34.0521 10.2083 33.125 10.875 32.1875C11.5417 31.25 12.2812 30.3438 13.0938 29.4688C13.9271 28.5729 14.8021 27.7812 15.7188 27.0938C16.6354 26.4062 17.5833 25.8542 18.5625 25.4375C19.5625 25.0208 20.5625 24.8125 21.5625 24.8125C22.2917 24.8125 22.9688 24.9792 23.5938 25.3125C24.2188 25.6458 24.75 26.0938 25.1875 26.6562C25.6458 27.1979 26 27.8229 26.25 28.5312C26.5 29.2396 26.625 29.9583 26.625 30.6875C26.625 32 26.3542 33.3125 25.8125 34.625C25.2917 35.9167 24.5833 37.1562 23.6875 38.3438C22.7917 39.5312 21.7396 40.6458 20.5312 41.6875C19.3438 42.7083 18.0833 43.5938 16.75 44.3438C15.4167 45.0938 14.0521 45.6875 12.6562 46.125C11.2812 46.5417 9.95833 46.75 8.6875 46.75C7.66667 46.75 6.66667 46.5833 5.6875 46.25C4.70833 45.8958 3.82292 45.375 3.03125 44.6875C2.26042 43.9792 1.63542 43.1042 1.15625 42.0625C0.677083 41.0208 0.4375 39.7917 0.4375 38.375C0.4375 36.6667 0.71875 35.0208 1.28125 33.4375C1.86458 31.8333 2.65625 30.3438 3.65625 28.9688C4.65625 27.5729 5.83333 26.3125 7.1875 25.1875C8.5625 24.0417 10.0312 23.0625 11.5938 22.25C13.1771 21.4375 14.8125 20.8125 16.5 20.375C18.2083 19.9167 19.9167 19.6875 21.625 19.6875C21.7083 19.6875 21.7917 19.6875 21.875 19.6875C21.9583 19.6875 22.0729 19.6875 22.2188 19.6875C22.3854 19.6875 22.6042 19.6979 22.875 19.7188C23.1458 19.7188 23.5 19.7292 23.9375 19.75C23.8125 19.5208 23.6771 19.2708 23.5312 19C23.3854 18.7292 23.25 18.4375 23.125 18.125C22.3333 18.25 21.5938 18.3229 20.9062 18.3438C20.2188 18.3646 19.5625 18.375 18.9375 18.375C17.8125 18.375 16.75 18.3021 15.75 18.1562C14.7708 18.0104 13.9062 17.7708 13.1562 17.4375C12.4062 17.1042 11.8125 16.6771 11.375 16.1562C10.9583 15.6146 10.75 14.9583 10.75 14.1875C10.75 13.4167 10.9688 12.6979 11.4062 12.0312C11.8438 11.3438 12.3958 10.7188 13.0625 10.1562C13.75 9.59375 14.5 9.08333 15.3125 8.625C16.1458 8.14583 16.9479 7.73958 17.7188 7.40625C18.4896 7.07292 19.1771 6.80208 19.7812 6.59375C20.4062 6.36458 20.8542 6.20833 21.125 6.125C21.125 6.125 21.1875 6.10417 21.3125 6.0625H21.375L21.5625 6.375ZM29.75 7.9375C29.2917 8.45833 28.8542 9.01042 28.4375 9.59375C28.0208 10.1771 27.6458 10.7917 27.3125 11.4375C26.9792 12.0833 26.6979 12.7604 26.4688 13.4688C26.2604 14.1562 26.1458 14.875 26.125 15.625C27.8958 15.0625 29.5729 14.3333 31.1562 13.4375C32.7396 12.5417 34.125 11.5833 35.3125 10.5625C36.5208 9.52083 37.4792 8.46875 38.1875 7.40625C38.8958 6.34375 39.25 5.35417 39.25 4.4375C39.25 3.9375 39.0833 3.5625 38.75 3.3125C38.4167 3.0625 38 2.9375 37.5 2.9375C37.0208 2.9375 36.4583 3.07292 35.8125 3.34375C35.1875 3.59375 34.5208 3.94792 33.8125 4.40625C33.125 4.86458 32.4271 5.39583 31.7188 6C31.0104 6.60417 30.3542 7.25 29.75 7.9375ZM124.875 4.3125C122.792 4.6875 120.729 4.95833 118.688 5.125C116.646 5.29167 114.583 5.375 112.5 5.375H110.812C109.604 6.35417 108.469 7.36458 107.406 8.40625C106.365 9.42708 105.375 10.4375 104.438 11.4375C103.5 12.4375 102.615 13.4062 101.781 14.3438C100.969 15.2812 100.188 16.1667 99.4375 17C98.9583 17.5 98.4375 18.0729 97.875 18.7188C97.3333 19.3646 96.7292 20.0625 96.0625 20.8125L100.688 21.125L99.625 22.875H94.3125C93.3333 23.9792 92.3229 25.1354 91.2812 26.3438C90.2396 27.5312 89.1875 28.7188 88.125 29.9062C87.0625 31.0938 86.0104 32.25 84.9688 33.375C83.9479 34.5 82.9792 35.5417 82.0625 36.5C80.6042 38.0208 79.1146 39.4167 77.5938 40.6875C76.0729 41.9583 74.4896 43.0625 72.8438 44C71.1979 44.9167 69.4896 45.6354 67.7188 46.1562C65.9479 46.6771 64.0833 46.9375 62.125 46.9375C59.8542 46.9375 58.0938 46.5 56.8438 45.625C55.6146 44.75 55 43.6042 55 42.1875C55 41.6667 55.0833 41.1354 55.25 40.5938C55.4167 40.0312 55.6667 39.5312 56 39.0938C56.3542 38.6354 56.7812 38.2708 57.2812 38C57.8021 37.7083 58.3958 37.5625 59.0625 37.5625C59.8125 37.5625 60.3958 37.7604 60.8125 38.1562C61.2292 38.5521 61.4375 39.125 61.4375 39.875C61.4375 40.5625 61.2708 41.125 60.9375 41.5625C60.625 41.9792 60.2812 42.3333 59.9062 42.625C59.5312 42.9167 59.1771 43.1875 58.8438 43.4375C58.5312 43.6667 58.375 43.9375 58.375 44.25C58.375 44.6875 58.625 45.0208 59.125 45.25C59.625 45.4583 60.3125 45.5625 61.1875 45.5625C62.8542 45.5625 64.4062 45.3125 65.8438 44.8125C67.2812 44.3125 68.6562 43.6146 69.9688 42.7188C71.2812 41.8229 72.5625 40.75 73.8125 39.5C75.0833 38.25 76.375 36.875 77.6875 35.375C79.3125 33.4792 81.0625 31.4896 82.9375 29.4062C84.8333 27.3229 86.7917 25.1458 88.8125 22.875H83.8125L85.8125 20.0625L90.9375 20.4375C91.4167 19.9167 91.8958 19.3854 92.375 18.8438C92.875 18.2812 93.3854 17.7083 93.9062 17.125C94.4479 16.5208 95.0104 15.8958 95.5938 15.25C96.1979 14.6042 96.8542 13.9167 97.5625 13.1875C98.9792 11.7083 100.458 10.2812 102 8.90625C103.542 7.53125 105.146 6.25 106.812 5.0625C106.104 4.97917 105.396 4.88542 104.688 4.78125C103.979 4.67708 103.188 4.58333 102.312 4.5C101.438 4.39583 100.438 4.32292 99.3125 4.28125C98.1875 4.21875 96.8542 4.1875 95.3125 4.1875C92.6667 4.1875 90.2188 4.48958 87.9688 5.09375C85.7188 5.69792 83.7708 6.45833 82.125 7.375C80.4792 8.29167 79.1875 9.29167 78.25 10.375C77.3333 11.4583 76.875 12.4792 76.875 13.4375C76.875 13.8333 76.9479 14.2083 77.0938 14.5625C77.2396 14.8958 77.4896 15.1979 77.8438 15.4688C78.2188 15.7188 78.6979 15.9271 79.2812 16.0938C79.8854 16.2396 80.6458 16.3125 81.5625 16.3125C82.2917 16.3125 83.0104 16.2083 83.7188 16C84.4479 15.7708 85.1458 15.4792 85.8125 15.125C86.5 14.75 87.1562 14.3333 87.7812 13.875C88.4062 13.3958 88.9896 12.9062 89.5312 12.4062C90.8021 11.2604 92 9.95833 93.125 8.5L93.5625 9.3125C92.75 11.25 91.8333 12.8229 90.8125 14.0312C89.8125 15.2396 88.7812 16.1771 87.7188 16.8438C86.6562 17.5104 85.5833 17.9688 84.5 18.2188C83.4375 18.4479 82.4375 18.5625 81.5 18.5625C80.7708 18.5625 80.0312 18.4896 79.2812 18.3438C78.5521 18.1771 77.8854 17.8958 77.2812 17.5C76.6979 17.1042 76.2188 16.5729 75.8438 15.9062C75.4896 15.2396 75.3125 14.3958 75.3125 13.375C75.3125 12.375 75.625 11.3854 76.25 10.4062C76.8958 9.40625 77.75 8.44792 78.8125 7.53125C79.8958 6.61458 81.1458 5.76042 82.5625 4.96875C83.9792 4.17708 85.4688 3.48958 87.0312 2.90625C88.6146 2.30208 90.2188 1.83333 91.8438 1.5C93.4896 1.16667 95.0625 1 96.5625 1C97.3958 1 98.3021 1.0625 99.2812 1.1875C100.26 1.29167 101.323 1.4375 102.469 1.625C103.615 1.79167 104.854 1.97917 106.188 2.1875C107.521 2.39583 108.958 2.58333 110.5 2.75C111.5 2.1875 112.51 1.6875 113.531 1.25C114.573 0.791667 115.625 0.416667 116.688 0.125L117.188 0.9375C116.583 1.29167 116.01 1.64583 115.469 2C114.948 2.33333 114.417 2.6875 113.875 3.0625C114.938 3.125 116.052 3.1875 117.219 3.25C118.406 3.29167 119.646 3.3125 120.938 3.3125C121.75 3.3125 122.552 3.30208 123.344 3.28125C124.156 3.26042 124.938 3.22917 125.688 3.1875L124.875 4.3125ZM147.812 6.375C147.625 6.41667 147.323 6.54167 146.906 6.75C146.49 6.9375 146.01 7.1875 145.469 7.5C144.948 7.8125 144.406 8.1875 143.844 8.625C143.302 9.04167 142.792 9.51042 142.312 10.0312C141.854 10.5312 141.479 11.0729 141.188 11.6562C140.896 12.2396 140.75 12.8333 140.75 13.4375C140.75 13.8958 140.844 14.3229 141.031 14.7188C141.24 15.0938 141.552 15.4271 141.969 15.7188C142.406 15.9896 142.958 16.2083 143.625 16.375C144.292 16.5417 145.104 16.625 146.062 16.625C146.542 16.625 147.021 16.6146 147.5 16.5938C147.979 16.5521 148.458 16.4792 148.938 16.375V15.5625C148.938 14.125 149.156 12.75 149.594 11.4375C150.052 10.125 150.656 8.90625 151.406 7.78125C152.156 6.65625 153.031 5.64583 154.031 4.75C155.052 3.83333 156.115 3.0625 157.219 2.4375C158.323 1.79167 159.448 1.30208 160.594 0.96875C161.76 0.614583 162.875 0.4375 163.938 0.4375C164.646 0.4375 165.24 0.552083 165.719 0.78125C166.198 0.989583 166.583 1.27083 166.875 1.625C167.167 1.95833 167.375 2.34375 167.5 2.78125C167.625 3.19792 167.688 3.60417 167.688 4C167.688 4.54167 167.594 5.1875 167.406 5.9375C167.24 6.6875 166.792 7.55208 166.062 8.53125C165.333 9.48958 164.229 10.5625 162.75 11.75C161.271 12.9375 159.229 14.2292 156.625 15.625C155.875 16.0417 155.156 16.3958 154.469 16.6875C153.781 16.9583 153.125 17.1875 152.5 17.375C152.646 18.0625 152.865 18.6771 153.156 19.2188C153.448 19.7604 153.74 20.2188 154.031 20.5938C154.385 21.0312 154.75 21.4167 155.125 21.75L154.375 22.5C153.958 22.2083 153.438 21.9583 152.812 21.75C152.208 21.5417 151.438 21.4375 150.5 21.4375L149.625 21.5C148.542 21.6042 147.323 21.9271 145.969 22.4688C144.615 22.9896 143.229 23.6771 141.812 24.5312C140.417 25.3854 139.052 26.3646 137.719 27.4688C136.385 28.5729 135.198 29.75 134.156 31C133.115 32.2292 132.271 33.5 131.625 34.8125C131 36.1042 130.688 37.375 130.688 38.625C130.688 39.3125 130.74 40.0104 130.844 40.7188C130.969 41.4062 131.229 42.0312 131.625 42.5938C132.042 43.1562 132.646 43.6146 133.438 43.9688C134.25 44.3229 135.333 44.5 136.688 44.5C137.938 44.5 139.188 44.2917 140.438 43.875C141.688 43.4583 142.875 42.9062 144 42.2188C145.125 41.5104 146.167 40.7083 147.125 39.8125C148.083 38.8958 148.917 37.9479 149.625 36.9688C150.333 35.9896 150.885 35.0104 151.281 34.0312C151.677 33.0312 151.875 32.1042 151.875 31.25C151.875 30.5833 151.76 30.0208 151.531 29.5625C151.302 29.0833 151 28.7083 150.625 28.4375C150.25 28.1458 149.812 27.9375 149.312 27.8125C148.833 27.6875 148.333 27.625 147.812 27.625C146.688 27.625 145.49 27.875 144.219 28.375C142.969 28.875 141.74 29.5729 140.531 30.4688C139.344 31.3438 138.219 32.4062 137.156 33.6562C136.094 34.8854 135.208 36.2292 134.5 37.6875L134.25 37.4375C134.5 36.7083 134.875 35.8854 135.375 34.9688C135.875 34.0521 136.458 33.125 137.125 32.1875C137.792 31.25 138.531 30.3438 139.344 29.4688C140.177 28.5729 141.052 27.7812 141.969 27.0938C142.885 26.4062 143.833 25.8542 144.812 25.4375C145.812 25.0208 146.812 24.8125 147.812 24.8125C148.542 24.8125 149.219 24.9792 149.844 25.3125C150.469 25.6458 151 26.0938 151.438 26.6562C151.896 27.1979 152.25 27.8229 152.5 28.5312C152.75 29.2396 152.875 29.9583 152.875 30.6875C152.875 32 152.604 33.3125 152.062 34.625C151.542 35.9167 150.833 37.1562 149.938 38.3438C149.042 39.5312 147.99 40.6458 146.781 41.6875C145.594 42.7083 144.333 43.5938 143 44.3438C141.667 45.0938 140.302 45.6875 138.906 46.125C137.531 46.5417 136.208 46.75 134.938 46.75C133.917 46.75 132.917 46.5833 131.938 46.25C130.958 45.8958 130.073 45.375 129.281 44.6875C128.51 43.9792 127.885 43.1042 127.406 42.0625C126.927 41.0208 126.688 39.7917 126.688 38.375C126.688 36.6667 126.969 35.0208 127.531 33.4375C128.115 31.8333 128.906 30.3438 129.906 28.9688C130.906 27.5729 132.083 26.3125 133.438 25.1875C134.812 24.0417 136.281 23.0625 137.844 22.25C139.427 21.4375 141.062 20.8125 142.75 20.375C144.458 19.9167 146.167 19.6875 147.875 19.6875C147.958 19.6875 148.042 19.6875 148.125 19.6875C148.208 19.6875 148.323 19.6875 148.469 19.6875C148.635 19.6875 148.854 19.6979 149.125 19.7188C149.396 19.7188 149.75 19.7292 150.188 19.75C150.062 19.5208 149.927 19.2708 149.781 19C149.635 18.7292 149.5 18.4375 149.375 18.125C148.583 18.25 147.844 18.3229 147.156 18.3438C146.469 18.3646 145.812 18.375 145.188 18.375C144.062 18.375 143 18.3021 142 18.1562C141.021 18.0104 140.156 17.7708 139.406 17.4375C138.656 17.1042 138.062 16.6771 137.625 16.1562C137.208 15.6146 137 14.9583 137 14.1875C137 13.4167 137.219 12.6979 137.656 12.0312C138.094 11.3438 138.646 10.7188 139.312 10.1562C140 9.59375 140.75 9.08333 141.562 8.625C142.396 8.14583 143.198 7.73958 143.969 7.40625C144.74 7.07292 145.427 6.80208 146.031 6.59375C146.656 6.36458 147.104 6.20833 147.375 6.125C147.375 6.125 147.438 6.10417 147.562 6.0625H147.625L147.812 6.375ZM156 7.9375C155.542 8.45833 155.104 9.01042 154.688 9.59375C154.271 10.1771 153.896 10.7917 153.562 11.4375C153.229 12.0833 152.948 12.7604 152.719 13.4688C152.51 14.1562 152.396 14.875 152.375 15.625C154.146 15.0625 155.823 14.3333 157.406 13.4375C158.99 12.5417 160.375 11.5833 161.562 10.5625C162.771 9.52083 163.729 8.46875 164.438 7.40625C165.146 6.34375 165.5 5.35417 165.5 4.4375C165.5 3.9375 165.333 3.5625 165 3.3125C164.667 3.0625 164.25 2.9375 163.75 2.9375C163.271 2.9375 162.708 3.07292 162.062 3.34375C161.438 3.59375 160.771 3.94792 160.062 4.40625C159.375 4.86458 158.677 5.39583 157.969 6C157.26 6.60417 156.604 7.25 156 7.9375Z" fill="white" fill-opacity="0.9"/>
</svg>
